<svg width="97" height="20" viewBox="0 0 97 20" fill="none" xmlns="http://www.w3.org/2000/svg">
<path d="M38.832 20C38.32 20 37.8933 19.8667 37.552 19.6C37.2107 19.3333 37.04 18.9493 37.04 18.448C37.04 17.84 37.2853 17.3493 37.776 16.976C38.2667 16.6133 38.8907 16.3093 39.648 16.064L39.84 15.216C39.296 15.8027 38.656 16.096 37.92 16.096C37.312 16.096 36.8053 15.888 36.4 15.472C35.9947 15.056 35.792 14.4053 35.792 13.52C35.792 12.7307 35.9467 11.904 36.256 11.04C36.576 10.1653 37.0453 9.42933 37.664 8.832C38.2933 8.224 39.04 7.92 39.904 7.92C40.3413 7.92 40.6667 7.99467 40.88 8.144C41.0933 8.29333 41.2 8.49067 41.2 8.736V8.832L41.376 8H43.68L42.096 15.424C42.608 15.2533 43.0187 14.9973 43.328 14.656C43.6373 14.3147 43.8987 13.808 44.112 13.136H44.784C44.496 14.0853 44.1067 14.784 43.616 15.232C43.1253 15.6693 42.5707 15.968 41.952 16.128L41.712 17.28C41.4987 18.3147 41.1307 19.024 40.608 19.408C40.0853 19.8027 39.4933 20 38.832 20ZM38.96 14.544C39.2053 14.544 39.456 14.432 39.712 14.208C39.968 13.984 40.144 13.68 40.24 13.296L41.056 9.504C41.056 9.376 41.0027 9.248 40.896 9.12C40.7893 8.98133 40.624 8.912 40.4 8.912C39.9733 8.912 39.5893 9.16267 39.248 9.664C38.9067 10.1547 38.64 10.752 38.448 11.456C38.256 12.1493 38.16 12.7627 38.16 13.296C38.16 13.8293 38.2347 14.1707 38.384 14.32C38.544 14.4693 38.736 14.544 38.96 14.544ZM38.464 18.752C38.6453 18.752 38.8213 18.6293 38.992 18.384C39.1627 18.1387 39.296 17.7867 39.392 17.328L39.488 16.864C38.4427 17.248 37.92 17.7013 37.92 18.224C37.92 18.3627 37.968 18.4853 38.064 18.592C38.16 18.6987 38.2933 18.752 38.464 18.752ZM46.3974 16.096C45.608 16.096 44.9947 15.8933 44.5574 15.488C44.12 15.072 43.9014 14.4267 43.9014 13.552C43.9014 12.816 44.0454 12.0053 44.3334 11.12C44.6214 10.2347 45.0907 9.472 45.7414 8.832C46.392 8.18133 47.2187 7.856 48.2214 7.856C49.3947 7.856 49.9814 8.368 49.9814 9.392C49.9814 9.98933 49.8107 10.5387 49.4694 11.04C49.128 11.5413 48.6747 11.9467 48.1094 12.256C47.544 12.5547 46.9414 12.7253 46.3014 12.768C46.28 13.088 46.2694 13.3013 46.2694 13.408C46.2694 13.9307 46.36 14.288 46.5414 14.48C46.7227 14.6613 47.016 14.752 47.4214 14.752C47.9974 14.752 48.488 14.6187 48.8934 14.352C49.3094 14.0853 49.7627 13.68 50.2534 13.136H50.7974C49.6134 15.1093 48.1467 16.096 46.3974 16.096ZM46.4294 12C46.824 11.9787 47.1974 11.84 47.5494 11.584C47.912 11.328 48.2 11.0027 48.4134 10.608C48.6374 10.2133 48.7494 9.79733 48.7494 9.36C48.7494 8.92267 48.616 8.704 48.3494 8.704C47.9654 8.704 47.5867 9.04 47.2134 9.712C46.8507 10.384 46.5894 11.1467 46.4294 12ZM56.026 16.096C55.3753 16.096 54.8953 15.9253 54.586 15.584C54.2873 15.232 54.138 14.8 54.138 14.288C54.138 14.064 54.1647 13.8133 54.218 13.536C54.2713 13.248 54.3247 12.9707 54.378 12.704C54.442 12.4373 54.4847 12.2667 54.506 12.192C54.5913 11.8187 54.6713 11.4507 54.746 11.088C54.8207 10.7253 54.858 10.432 54.858 10.208C54.858 9.664 54.666 9.392 54.282 9.392C54.0047 9.392 53.7593 9.53067 53.546 9.808C53.3327 10.0747 53.162 10.4267 53.034 10.864L51.946 16H49.642L51.338 8H53.642L53.466 8.832C53.9993 8.23467 54.6233 7.936 55.338 7.936C55.882 7.936 56.314 8.08533 56.634 8.384C56.954 8.68267 57.114 9.136 57.114 9.744C57.114 10.0533 57.0767 10.4 57.002 10.784C56.9273 11.1573 56.8207 11.616 56.682 12.16C56.5967 12.4907 56.5167 12.816 56.442 13.136C56.378 13.4453 56.346 13.6907 56.346 13.872C56.346 14.0853 56.394 14.2507 56.49 14.368C56.586 14.4853 56.7513 14.544 56.986 14.544C57.306 14.544 57.562 14.432 57.754 14.208C57.946 13.9733 58.138 13.616 58.33 13.136H59.002C58.6073 14.3093 58.1487 15.0987 57.626 15.504C57.114 15.8987 56.5807 16.096 56.026 16.096ZM60.6161 16.096C59.8268 16.096 59.2135 15.8933 58.7761 15.488C58.3388 15.072 58.1201 14.4267 58.1201 13.552C58.1201 12.816 58.2641 12.0053 58.5521 11.12C58.8401 10.2347 59.3095 9.472 59.9601 8.832C60.6108 8.18133 61.4375 7.856 62.4401 7.856C63.6135 7.856 64.2001 8.368 64.2001 9.392C64.2001 9.98933 64.0295 10.5387 63.6881 11.04C63.3468 11.5413 62.8935 11.9467 62.3281 12.256C61.7628 12.5547 61.1601 12.7253 60.5201 12.768C60.4988 13.088 60.4881 13.3013 60.4881 13.408C60.4881 13.9307 60.5788 14.288 60.7601 14.48C60.9415 14.6613 61.2348 14.752 61.6401 14.752C62.2161 14.752 62.7068 14.6187 63.1121 14.352C63.5281 14.0853 63.9815 13.68 64.4721 13.136H65.0161C63.8321 15.1093 62.3655 16.096 60.6161 16.096ZM60.6481 12C61.0428 11.9787 61.4161 11.84 61.7681 11.584C62.1308 11.328 62.4188 11.0027 62.6321 10.608C62.8561 10.2133 62.9681 9.79733 62.9681 9.36C62.9681 8.92267 62.8348 8.704 62.5681 8.704C62.1841 8.704 61.8055 9.04 61.4321 9.712C61.0695 10.384 60.8081 11.1467 60.6481 12ZM65.5568 8H67.8608L67.6528 8.992C68.0154 8.672 68.3408 8.42667 68.6288 8.256C68.9274 8.08533 69.2474 8 69.5888 8C69.9301 8 70.1968 8.11733 70.3888 8.352C70.5914 8.58667 70.6928 8.86933 70.6928 9.2C70.6928 9.50933 70.5914 9.78133 70.3888 10.016C70.1861 10.2507 69.9034 10.368 69.5408 10.368C69.3061 10.368 69.1461 10.3147 69.0608 10.208C68.9861 10.0907 68.9274 9.92533 68.8848 9.712C68.8528 9.57333 68.8208 9.472 68.7888 9.408C68.7568 9.344 68.6981 9.312 68.6128 9.312C68.3888 9.312 68.1968 9.36 68.0368 9.456C67.8874 9.54133 67.6901 9.696 67.4448 9.92L66.1648 16H63.8607L65.5568 8ZM72.4044 16.096C71.7964 16.096 71.2897 15.888 70.8844 15.472C70.479 15.056 70.2764 14.4053 70.2764 13.52C70.2764 12.7307 70.431 11.904 70.7404 11.04C71.0604 10.1653 71.5297 9.42933 72.1484 8.832C72.7777 8.224 73.5244 7.92 74.3884 7.92C74.8257 7.92 75.151 7.99467 75.3644 8.144C75.5777 8.29333 75.6844 8.49067 75.6844 8.736V8.848L75.8604 8H78.1644L77.0124 13.44C76.9697 13.6 76.9484 13.7707 76.9484 13.952C76.9484 14.4107 77.167 14.64 77.6044 14.64C77.903 14.64 78.159 14.5013 78.3724 14.224C78.5964 13.9467 78.7724 13.584 78.9004 13.136H79.5724C79.1777 14.288 78.687 15.072 78.1004 15.488C77.5244 15.8933 76.943 16.096 76.3564 16.096C75.9084 16.096 75.5457 15.9733 75.2684 15.728C75.0017 15.472 74.8417 15.104 74.7884 14.624C74.479 15.0613 74.1324 15.4187 73.7484 15.696C73.375 15.9627 72.927 16.096 72.4044 16.096ZM73.4444 14.544C73.711 14.544 73.9724 14.4213 74.2284 14.176C74.495 13.92 74.6764 13.5733 74.7724 13.136L75.5404 9.52C75.5404 9.38133 75.487 9.248 75.3804 9.12C75.2737 8.98133 75.1084 8.912 74.8844 8.912C74.4577 8.912 74.0737 9.16267 73.7324 9.664C73.391 10.1547 73.1244 10.752 72.9324 11.456C72.7404 12.1493 72.6444 12.7627 72.6444 13.296C72.6444 13.8293 72.719 14.1707 72.8684 14.32C73.0284 14.4693 73.2204 14.544 73.4444 14.544ZM80.4903 16.096C79.9783 16.096 79.5623 15.936 79.2423 15.616C78.9329 15.296 78.7782 14.816 78.7782 14.176C78.7782 13.9093 78.8209 13.5627 78.9062 13.136L79.8663 8.64H79.3383L79.4663 8H79.9943L80.4743 5.792L82.8423 5.472L82.2983 8H83.2583L83.1302 8.64H82.1703L81.1463 13.44C81.1036 13.6 81.0823 13.7707 81.0823 13.952C81.0823 14.1653 81.1303 14.32 81.2263 14.416C81.3329 14.5013 81.5036 14.544 81.7383 14.544C82.0476 14.544 82.3356 14.416 82.6023 14.16C82.8689 13.8933 83.0609 13.552 83.1783 13.136H83.8503C83.4556 14.288 82.9489 15.072 82.3303 15.488C81.7116 15.8933 81.0983 16.096 80.4903 16.096ZM85.5079 16.064C84.7185 16.064 84.0945 15.8613 83.6359 15.456C83.1772 15.0507 82.9479 14.4107 82.9479 13.536C82.9479 12.8107 83.0972 12.0053 83.3959 11.12C83.6945 10.2347 84.1745 9.472 84.8359 8.832C85.4972 8.18133 86.3292 7.856 87.3319 7.856C88.6972 7.856 89.3799 8.70933 89.3799 10.416V10.432C89.4119 10.4427 89.4705 10.448 89.5559 10.448C89.9079 10.448 90.3132 10.3573 90.7719 10.176C91.2305 9.984 91.6465 9.75467 92.0199 9.488L92.1639 9.92C91.8545 10.2507 91.4492 10.5333 90.9479 10.768C90.4572 10.992 89.9185 11.152 89.3319 11.248C89.2465 12.2187 89.0279 13.0667 88.6759 13.792C88.3239 14.5173 87.8705 15.0773 87.3159 15.472C86.7612 15.8667 86.1585 16.064 85.5079 16.064ZM86.1479 14.624C86.4039 14.624 86.6599 14.48 86.9159 14.192C87.1719 13.8933 87.3959 13.4933 87.5879 12.992C87.7799 12.48 87.9185 11.9147 88.0039 11.296C87.7159 11.232 87.5719 11.008 87.5719 10.624C87.5719 10.1867 87.7372 9.89867 88.0679 9.76C88.0465 9.408 87.9932 9.168 87.9079 9.04C87.8225 8.90133 87.6732 8.832 87.4599 8.832C87.1079 8.832 86.7665 9.088 86.4359 9.6C86.1052 10.112 85.8385 10.7253 85.6359 11.44C85.4332 12.1547 85.3319 12.784 85.3319 13.328C85.3319 13.84 85.3905 14.1867 85.5079 14.368C85.6252 14.5387 85.8385 14.624 86.1479 14.624ZM91.2911 8H93.5951L93.3871 8.992C93.7498 8.672 94.0751 8.42667 94.3631 8.256C94.6618 8.08533 94.9818 8 95.3231 8C95.6645 8 95.9311 8.11733 96.1231 8.352C96.3258 8.58667 96.4271 8.86933 96.4271 9.2C96.4271 9.50933 96.3258 9.78133 96.1231 10.016C95.9205 10.2507 95.6378 10.368 95.2751 10.368C95.0405 10.368 94.8805 10.3147 94.7951 10.208C94.7205 10.0907 94.6618 9.92533 94.6191 9.712C94.5871 9.57333 94.5551 9.472 94.5231 9.408C94.4911 9.344 94.4325 9.312 94.3471 9.312C94.1231 9.312 93.9311 9.36 93.7711 9.456C93.6218 9.54133 93.4245 9.696 93.1791 9.92L91.8991 16H89.5951L91.2911 8Z" fill="#3B82F6"/>
<path d="M11.2784 8.4375H8.78977C8.74432 8.11553 8.65152 7.82955 8.51136 7.57955C8.37121 7.32576 8.19129 7.10985 7.97159 6.93182C7.75189 6.75379 7.49811 6.61742 7.21023 6.52273C6.92614 6.42803 6.61742 6.38068 6.28409 6.38068C5.68182 6.38068 5.1572 6.5303 4.71023 6.82955C4.26326 7.125 3.91667 7.55682 3.67045 8.125C3.42424 8.68939 3.30114 9.375 3.30114 10.1818C3.30114 11.0114 3.42424 11.7083 3.67045 12.2727C3.92045 12.8371 4.26894 13.2633 4.71591 13.5511C5.16288 13.839 5.67992 13.983 6.26705 13.983C6.59659 13.983 6.90152 13.9394 7.18182 13.8523C7.46591 13.7652 7.7178 13.6383 7.9375 13.4716C8.1572 13.3011 8.33902 13.0947 8.48295 12.8523C8.63068 12.6098 8.73295 12.3333 8.78977 12.0227L11.2784 12.0341C11.214 12.5682 11.053 13.0833 10.7955 13.5795C10.5417 14.072 10.1989 14.5133 9.76705 14.9034C9.33902 15.2898 8.82765 15.5966 8.23295 15.8239C7.64205 16.0473 6.97348 16.1591 6.22727 16.1591C5.18939 16.1591 4.26136 15.9242 3.44318 15.4545C2.62879 14.9848 1.98485 14.3049 1.51136 13.4148C1.04167 12.5246 0.806818 11.447 0.806818 10.1818C0.806818 8.91288 1.04545 7.83333 1.52273 6.94318C2 6.05303 2.64773 5.375 3.46591 4.90909C4.28409 4.43939 5.20455 4.20455 6.22727 4.20455C6.90152 4.20455 7.52652 4.29924 8.10227 4.48864C8.68182 4.67803 9.19508 4.95455 9.64205 5.31818C10.089 5.67803 10.4527 6.11932 10.733 6.64205C11.017 7.16477 11.1989 7.76326 11.2784 8.4375ZM19.3551 7.71023C19.3097 7.25189 19.1146 6.89583 18.7699 6.64205C18.4252 6.38826 17.9574 6.26136 17.3665 6.26136C16.965 6.26136 16.6259 6.31818 16.3494 6.43182C16.0729 6.54167 15.8608 6.69508 15.7131 6.89205C15.5691 7.08902 15.4972 7.3125 15.4972 7.5625C15.4896 7.77083 15.5331 7.95265 15.6278 8.10795C15.7263 8.26326 15.8608 8.39773 16.0312 8.51136C16.2017 8.62121 16.3987 8.7178 16.6222 8.80114C16.8456 8.88068 17.0843 8.94886 17.3381 9.00568L18.3835 9.25568C18.8911 9.36932 19.357 9.52083 19.7812 9.71023C20.2055 9.89962 20.5729 10.1326 20.8835 10.4091C21.1941 10.6856 21.4347 11.0114 21.6051 11.3864C21.7794 11.7614 21.8684 12.1913 21.8722 12.6761C21.8684 13.3883 21.6866 14.0057 21.3267 14.5284C20.9706 15.0473 20.4555 15.4508 19.7812 15.7386C19.1108 16.0227 18.3021 16.1648 17.3551 16.1648C16.4157 16.1648 15.5975 16.0208 14.9006 15.733C14.2074 15.4451 13.6657 15.0189 13.2756 14.4545C12.8892 13.8864 12.6866 13.1837 12.6676 12.3466H15.0483C15.0748 12.7367 15.1866 13.0625 15.3835 13.3239C15.5843 13.5814 15.8513 13.7765 16.1847 13.9091C16.5218 14.0379 16.9025 14.1023 17.3267 14.1023C17.7434 14.1023 18.1051 14.0417 18.4119 13.9205C18.7225 13.7992 18.9631 13.6307 19.1335 13.4148C19.304 13.1989 19.3892 12.9508 19.3892 12.6705C19.3892 12.4091 19.3116 12.1894 19.1562 12.0114C19.0047 11.8333 18.7813 11.6818 18.4858 11.5568C18.1941 11.4318 17.8362 11.3182 17.4119 11.2159L16.1449 10.8977C15.1638 10.6591 14.3892 10.286 13.821 9.77841C13.2528 9.27083 12.9706 8.58712 12.9744 7.72727C12.9706 7.02273 13.1581 6.4072 13.5369 5.88068C13.9195 5.35417 14.4441 4.94318 15.1108 4.64773C15.7775 4.35227 16.535 4.20455 17.3835 4.20455C18.2472 4.20455 19.0009 4.35227 19.6449 4.64773C20.2926 4.94318 20.7964 5.35417 21.1562 5.88068C21.5161 6.4072 21.7017 7.01705 21.7131 7.71023H19.3551ZM29.8395 7.71023C29.794 7.25189 29.599 6.89583 29.2543 6.64205C28.9096 6.38826 28.4418 6.26136 27.8509 6.26136C27.4493 6.26136 27.1103 6.31818 26.8338 6.43182C26.5573 6.54167 26.3452 6.69508 26.1974 6.89205C26.0535 7.08902 25.9815 7.3125 25.9815 7.5625C25.974 7.77083 26.0175 7.95265 26.1122 8.10795C26.2107 8.26326 26.3452 8.39773 26.5156 8.51136C26.6861 8.62121 26.883 8.7178 27.1065 8.80114C27.33 8.88068 27.5687 8.94886 27.8224 9.00568L28.8679 9.25568C29.3755 9.36932 29.8414 9.52083 30.2656 9.71023C30.6899 9.89962 31.0573 10.1326 31.3679 10.4091C31.6785 10.6856 31.919 11.0114 32.0895 11.3864C32.2637 11.7614 32.3527 12.1913 32.3565 12.6761C32.3527 13.3883 32.1709 14.0057 31.8111 14.5284C31.455 15.0473 30.9399 15.4508 30.2656 15.7386C29.5952 16.0227 28.7865 16.1648 27.8395 16.1648C26.9001 16.1648 26.0819 16.0208 25.3849 15.733C24.6918 15.4451 24.1501 15.0189 23.7599 14.4545C23.3736 13.8864 23.1709 13.1837 23.152 12.3466H25.5327C25.5592 12.7367 25.6709 13.0625 25.8679 13.3239C26.0687 13.5814 26.3357 13.7765 26.669 13.9091C27.0062 14.0379 27.3868 14.1023 27.8111 14.1023C28.2277 14.1023 28.5895 14.0417 28.8963 13.9205C29.2069 13.7992 29.4474 13.6307 29.6179 13.4148C29.7884 13.1989 29.8736 12.9508 29.8736 12.6705C29.8736 12.4091 29.7959 12.1894 29.6406 12.0114C29.4891 11.8333 29.2656 11.6818 28.9702 11.5568C28.6785 11.4318 28.3205 11.3182 27.8963 11.2159L26.6293 10.8977C25.6482 10.6591 24.8736 10.286 24.3054 9.77841C23.7372 9.27083 23.455 8.58712 23.4588 7.72727C23.455 7.02273 23.6425 6.4072 24.0213 5.88068C24.4039 5.35417 24.9285 4.94318 25.5952 4.64773C26.2618 4.35227 27.0194 4.20455 27.8679 4.20455C28.7315 4.20455 29.4853 4.35227 30.1293 4.64773C30.777 4.94318 31.2808 5.35417 31.6406 5.88068C32.0005 6.4072 32.1861 7.01705 32.1974 7.71023H29.8395Z" fill="white"/>
<path d="M11.2784 8.4375V8.6375H11.5034L11.477 8.41407L11.2784 8.4375ZM8.78977 8.4375L8.59174 8.46546L8.61603 8.6375H8.78977V8.4375ZM8.51136 7.57955L8.33628 7.67623L8.33691 7.67735L8.51136 7.57955ZM7.97159 6.93182L7.84567 7.0872L7.84567 7.0872L7.97159 6.93182ZM7.21023 6.52273L7.14698 6.71247L7.14773 6.71271L7.21023 6.52273ZM4.71023 6.82955L4.82052 6.99639L4.82149 6.99574L4.71023 6.82955ZM3.67045 8.125L3.85377 8.20497L3.85397 8.20452L3.67045 8.125ZM3.67045 12.2727L3.48714 12.3527L3.48759 12.3537L3.67045 12.2727ZM4.71591 13.5511L4.60761 13.7193L4.60761 13.7193L4.71591 13.5511ZM7.18182 13.8523L7.12318 13.6611L7.12246 13.6613L7.18182 13.8523ZM7.9375 13.4716L8.05838 13.6309L8.0601 13.6296L7.9375 13.4716ZM8.48295 12.8523L8.31216 12.7482L8.31098 12.7502L8.48295 12.8523ZM8.78977 12.0227L8.79069 11.8227L8.62318 11.822L8.59304 11.9867L8.78977 12.0227ZM11.2784 12.0341L11.477 12.058L11.5038 11.8351L11.2793 11.8341L11.2784 12.0341ZM10.7955 13.5795L10.6179 13.4874L10.6177 13.4879L10.7955 13.5795ZM9.76705 14.9034L9.90106 15.0519L9.90113 15.0518L9.76705 14.9034ZM8.23295 15.8239L8.30371 16.0109L8.30435 16.0107L8.23295 15.8239ZM3.44318 15.4545L3.34326 15.6278L3.34361 15.628L3.44318 15.4545ZM1.51136 13.4148L1.33448 13.5081L1.33479 13.5087L1.51136 13.4148ZM1.52273 6.94318L1.69899 7.03769L1.69899 7.03769L1.52273 6.94318ZM3.46591 4.90909L3.56488 5.08289L3.56548 5.08254L3.46591 4.90909ZM8.10227 4.48864L8.03978 4.67862L8.04015 4.67874L8.10227 4.48864ZM9.64205 5.31818L9.51583 5.47333L9.51662 5.47397L9.64205 5.31818ZM10.733 6.64205L10.5567 6.73656L10.5572 6.73755L10.733 6.64205ZM11.2784 8.2375H8.78977V8.6375H11.2784V8.2375ZM8.98781 8.40954C8.93935 8.06631 8.83961 7.75607 8.68582 7.48174L8.33691 7.67735C8.46342 7.90302 8.54928 8.16475 8.59174 8.46546L8.98781 8.40954ZM8.68644 7.48286C8.53416 7.2071 8.33773 6.97109 8.09751 6.77643L7.84567 7.0872C8.04485 7.2486 8.20827 7.44441 8.33629 7.67623L8.68644 7.48286ZM8.09751 6.77643C7.85763 6.58205 7.582 6.43448 7.27272 6.33274L7.14773 6.71271C7.41421 6.80037 7.64616 6.92553 7.84567 7.0872L8.09751 6.77643ZM7.27347 6.33299C6.96682 6.23077 6.63651 6.18068 6.28409 6.18068V6.58068C6.59834 6.58068 6.88545 6.62529 7.14698 6.71246L7.27347 6.33299ZM6.28409 6.18068C5.64712 6.18068 5.08271 6.33948 4.59896 6.66335L4.82149 6.99574C5.23168 6.72112 5.71652 6.58068 6.28409 6.58068V6.18068ZM4.59994 6.6627C4.11581 6.98272 3.74612 7.44738 3.48694 8.04548L3.85397 8.20452C4.08721 7.66625 4.41071 7.26728 4.82051 6.99639L4.59994 6.6627ZM3.48714 8.04503C3.22708 8.64117 3.10114 9.35562 3.10114 10.1818H3.50114C3.50114 9.39438 3.62141 8.73762 3.85377 8.20497L3.48714 8.04503ZM3.10114 10.1818C3.10114 11.0299 3.22681 11.7559 3.48714 12.3527L3.85377 12.1928C3.62167 11.6607 3.50114 10.9929 3.50114 10.1818H3.10114ZM3.48759 12.3537C3.7508 12.9479 4.12279 13.407 4.60761 13.7193L4.8242 13.383C4.41509 13.1195 4.09011 12.7263 3.85332 12.1917L3.48759 12.3537ZM4.60761 13.7193C5.0902 14.0301 5.64567 14.183 6.26705 14.183V13.783C5.71418 13.783 5.23556 13.6479 4.8242 13.383L4.60761 13.7193ZM6.26705 14.183C6.61428 14.183 6.93946 14.137 7.24118 14.0433L7.12246 13.6613C6.86357 13.7418 6.5789 13.783 6.26705 13.783V14.183ZM7.24046 14.0435C7.54526 13.95 7.81856 13.8129 8.05838 13.6309L7.81662 13.3123C7.61704 13.4637 7.38656 13.5803 7.12318 13.6611L7.24046 14.0435ZM8.0601 13.6296C8.29989 13.4436 8.49836 13.2181 8.65493 12.9544L8.31098 12.7502C8.17967 12.9713 8.0145 13.1587 7.8149 13.3136L8.0601 13.6296ZM8.65374 12.9563C8.81557 12.6908 8.92578 12.3907 8.98651 12.0587L8.59304 11.9867C8.54013 12.2759 8.4458 12.5289 8.31217 12.7482L8.65374 12.9563ZM8.78886 12.2227L11.2775 12.2341L11.2793 11.8341L8.79069 11.8227L8.78886 12.2227ZM11.0798 12.0102C11.0184 12.5195 10.8649 13.0116 10.6179 13.4874L10.973 13.6717C11.2412 13.155 11.4096 12.6169 11.477 12.058L11.0798 12.0102ZM10.6177 13.4879C10.3755 13.9579 10.0478 14.3802 9.63297 14.755L9.90113 15.0518C10.3499 14.6463 10.7079 14.1861 10.9732 13.6712L10.6177 13.4879ZM9.63304 14.7549C9.22514 15.1231 8.73559 15.4177 8.16156 15.637L8.30435 16.0107C8.91971 15.7755 9.45289 15.4564 9.90106 15.0519L9.63304 14.7549ZM8.1622 15.6368C7.59759 15.8503 6.9536 15.9591 6.22727 15.9591V16.3591C6.99337 16.3591 7.6865 16.2444 8.30371 16.0109L8.1622 15.6368ZM6.22727 15.9591C5.22074 15.9591 4.32767 15.7317 3.54276 15.2811L3.34361 15.628C4.19506 16.1168 5.15805 16.3591 6.22727 16.3591V15.9591ZM3.5431 15.2813C2.76356 14.8317 2.14514 14.1804 1.68794 13.3209L1.33479 13.5087C1.82455 14.4295 2.49402 15.138 3.34326 15.6278L3.5431 15.2813ZM1.68825 13.3214C1.23714 12.4665 1.00682 11.4226 1.00682 10.1818H0.606818C0.606818 11.4713 0.846192 12.5827 1.33448 13.5081L1.68825 13.3214ZM1.00682 10.1818C1.00682 8.93757 1.2408 7.89226 1.69899 7.03769L1.34646 6.84868C0.850114 7.77441 0.606818 8.88819 0.606818 10.1818H1.00682ZM1.69899 7.03769C2.15982 6.1782 2.7818 5.5288 3.56488 5.08289L3.36694 4.73529C2.51365 5.2212 1.84018 5.92786 1.34646 6.84868L1.69899 7.03769ZM3.56548 5.08254C4.35084 4.63169 5.23646 4.40455 6.22727 4.40455V4.00455C5.17263 4.00455 4.21734 4.2471 3.36634 4.73564L3.56548 5.08254ZM6.22727 4.40455C6.88265 4.40455 7.48632 4.49656 8.03978 4.67862L8.16477 4.29865C7.56671 4.10192 6.92038 4.00455 6.22727 4.00455V4.40455ZM8.04015 4.67874C8.59774 4.86096 9.08898 5.12606 9.51583 5.47332L9.76826 5.16304C9.30117 4.78303 8.7659 4.4951 8.1644 4.29853L8.04015 4.67874ZM9.51662 5.47397C9.94201 5.81644 10.2886 6.23664 10.5567 6.73656L10.9092 6.54753C10.6167 6.00199 10.236 5.53962 9.76747 5.16239L9.51662 5.47397ZM10.5572 6.73755C10.8276 7.235 11.0028 7.80842 11.0798 8.46093L11.477 8.41407C11.3949 7.7181 11.2065 7.09455 10.9087 6.54654L10.5572 6.73755ZM19.3551 7.71023L19.1561 7.72996L19.174 7.91023H19.3551V7.71023ZM16.3494 6.43182L16.4233 6.6177L16.4255 6.61681L16.3494 6.43182ZM15.7131 6.89205L15.5531 6.77204L15.5516 6.77404L15.7131 6.89205ZM15.4972 7.5625L15.6972 7.56977V7.5625H15.4972ZM15.6278 8.10795L15.4571 8.21209L15.4589 8.21506L15.6278 8.10795ZM16.0312 8.51136L15.9203 8.67779L15.9229 8.67948L16.0312 8.51136ZM16.6222 8.80114L16.5523 8.98855L16.5551 8.98956L16.6222 8.80114ZM17.3381 9.00568L17.3846 8.81115L17.3818 8.81051L17.3381 9.00568ZM18.3835 9.25568L18.337 9.45022L18.3398 9.45085L18.3835 9.25568ZM19.7812 9.71023L19.6997 9.89285L19.6997 9.89285L19.7812 9.71023ZM20.8835 10.4091L21.0165 10.2597L21.0165 10.2597L20.8835 10.4091ZM21.6051 11.3864L21.423 11.4691L21.4237 11.4706L21.6051 11.3864ZM21.8722 12.6761L22.0722 12.6772L22.0722 12.6746L21.8722 12.6761ZM21.3267 14.5284L21.162 14.415L21.1618 14.4153L21.3267 14.5284ZM19.7812 15.7386L19.8593 15.9228L19.8598 15.9226L19.7812 15.7386ZM14.9006 15.733L14.8239 15.9177L14.8242 15.9178L14.9006 15.733ZM13.2756 14.4545L13.1102 14.567L13.1111 14.5683L13.2756 14.4545ZM12.6676 12.3466V12.1466H12.463L12.4677 12.3511L12.6676 12.3466ZM15.0483 12.3466L15.2478 12.333L15.2352 12.1466H15.0483V12.3466ZM15.3835 13.3239L15.2238 13.4442L15.2258 13.4468L15.3835 13.3239ZM16.1847 13.9091L16.1107 14.0949L16.1133 14.0959L16.1847 13.9091ZM18.4119 13.9205L18.3392 13.7341L18.3384 13.7344L18.4119 13.9205ZM19.1335 13.4148L19.2905 13.5387L19.2905 13.5387L19.1335 13.4148ZM19.1562 12.0114L19.0039 12.141L19.0055 12.1428L19.1562 12.0114ZM18.4858 11.5568L18.407 11.7406L18.4079 11.741L18.4858 11.5568ZM17.4119 11.2159L17.3632 11.4099L17.3651 11.4103L17.4119 11.2159ZM16.1449 10.8977L16.1936 10.7037L16.1922 10.7034L16.1449 10.8977ZM13.821 9.77841L13.6878 9.92756L13.6878 9.92756L13.821 9.77841ZM12.9744 7.72727L13.1744 7.72815L13.1744 7.7262L12.9744 7.72727ZM13.5369 5.88068L13.3751 5.76312L13.3746 5.76388L13.5369 5.88068ZM19.6449 4.64773L19.5615 4.82951L19.5619 4.82969L19.6449 4.64773ZM21.1562 5.88068L20.9911 5.99353L20.9911 5.99353L21.1562 5.88068ZM21.7131 7.71023V7.91023H21.9164L21.913 7.70695L21.7131 7.71023ZM19.5541 7.69049C19.5036 7.1806 19.2825 6.77113 18.8885 6.48099L18.6513 6.8031C18.9466 7.02053 19.1157 7.32319 19.1561 7.72996L19.5541 7.69049ZM18.8885 6.48099C18.4985 6.19388 17.9842 6.06136 17.3665 6.06136V6.46136C17.9306 6.46136 18.3519 6.58264 18.6513 6.8031L18.8885 6.48099ZM17.3665 6.06136C16.9473 6.06136 16.5808 6.12051 16.2734 6.24683L16.4255 6.61681C16.6711 6.51585 16.9826 6.46136 17.3665 6.46136V6.06136ZM16.2756 6.24595C15.972 6.36655 15.7271 6.53999 15.5531 6.77204L15.8731 7.01205C15.9945 6.85016 16.1738 6.71678 16.4233 6.61769L16.2756 6.24595ZM15.5516 6.77404C15.382 7.00616 15.2972 7.2712 15.2972 7.5625H15.6972C15.6972 7.3538 15.7563 7.17187 15.8745 7.01005L15.5516 6.77404ZM15.2973 7.55523C15.2885 7.79686 15.3391 8.0186 15.4571 8.21208L15.7986 8.00383C15.7272 7.8867 15.6907 7.74481 15.697 7.56977L15.2973 7.55523ZM15.4589 8.21506C15.574 8.39652 15.7293 8.55041 15.9203 8.67777L16.1422 8.34495C15.9923 8.24504 15.8786 8.12999 15.7967 8.00085L15.4589 8.21506ZM15.9229 8.67948C16.1074 8.79834 16.3176 8.90103 16.5523 8.98853L16.692 8.61374C16.4797 8.53458 16.2961 8.44408 16.1396 8.34325L15.9229 8.67948ZM16.5551 8.98956C16.7869 9.07207 17.0334 9.14243 17.2944 9.20085L17.3818 8.81051C17.1351 8.7553 16.9044 8.68929 16.6892 8.61272L16.5551 8.98956ZM17.2916 9.2002L18.337 9.4502L18.43 9.06117L17.3846 8.81117L17.2916 9.2002ZM18.3398 9.45085C18.8359 9.56192 19.289 9.70949 19.6997 9.89285L19.8628 9.5276C19.425 9.33218 18.9463 9.17672 18.4272 9.06051L18.3398 9.45085ZM19.6997 9.89285C20.1074 10.0748 20.457 10.2971 20.7505 10.5585L21.0165 10.2597C20.6889 9.96804 20.3036 9.7244 19.8628 9.5276L19.6997 9.89285ZM20.7505 10.5585C21.0405 10.8166 21.2642 11.1198 21.423 11.4691L21.7872 11.3036C21.6051 10.903 21.3477 10.5546 21.0165 10.2597L20.7505 10.5585ZM21.4237 11.4706C21.584 11.8156 21.6686 12.2165 21.6722 12.6777L22.0722 12.6746C22.0682 12.166 21.9747 11.7071 21.7865 11.3021L21.4237 11.4706ZM21.6722 12.6751C21.6686 13.3521 21.4963 13.9293 21.162 14.415L21.4914 14.6418C21.8768 14.0821 22.0682 13.4244 22.0722 12.6772L21.6722 12.6751ZM21.1618 14.4153C20.8306 14.898 20.3479 15.2792 19.7027 15.5547L19.8598 15.9226C20.5631 15.6223 21.1107 15.1967 21.4916 14.6416L21.1618 14.4153ZM19.7032 15.5545C19.0637 15.8255 18.283 15.9648 17.3551 15.9648V16.3648C18.3212 16.3648 19.1579 16.22 19.8593 15.9228L19.7032 15.5545ZM17.3551 15.9648C16.4357 15.9648 15.6445 15.8239 14.9769 15.5481L14.8242 15.9178C15.5506 16.2178 16.3957 16.3648 17.3551 16.3648V15.9648ZM14.9773 15.5482C14.3161 15.2737 13.8064 14.8707 13.4401 14.3408L13.1111 14.5683C13.5251 15.1672 14.0987 15.6165 14.8239 15.9177L14.9773 15.5482ZM13.441 14.3421C13.0806 13.8122 12.8858 13.1491 12.8676 12.3421L12.4677 12.3511C12.4873 13.2183 12.6978 13.9606 13.1102 14.567L13.441 14.3421ZM12.6676 12.5466H15.0483V12.1466H12.6676V12.5466ZM14.8488 12.3602C14.8774 12.7814 14.9993 13.1463 15.2238 13.4442L15.5432 13.2035C15.3738 12.9787 15.2722 12.6921 15.2478 12.333L14.8488 12.3602ZM15.2258 13.4468C15.4505 13.7351 15.7477 13.9505 16.1107 14.0949L16.2586 13.7233C15.9549 13.6025 15.7181 13.4277 15.5413 13.2009L15.2258 13.4468ZM16.1133 14.0959C16.4768 14.2348 16.8823 14.3023 17.3267 14.3023V13.9023C16.9227 13.9023 16.5667 13.841 16.256 13.7223L16.1133 14.0959ZM17.3267 14.3023C17.7622 14.3023 18.1499 14.239 18.4854 14.1065L18.3384 13.7344C18.0603 13.8443 17.7246 13.9023 17.3267 13.9023V14.3023ZM18.4846 14.1068C18.8214 13.9754 19.0938 13.7879 19.2905 13.5387L18.9765 13.2908C18.8324 13.4735 18.6237 13.6231 18.3392 13.7341L18.4846 14.1068ZM19.2905 13.5387C19.4894 13.2868 19.5892 12.9948 19.5892 12.6705H19.1892C19.1892 12.9067 19.1186 13.111 18.9765 13.2908L19.2905 13.5387ZM19.5892 12.6705C19.5892 12.3663 19.4975 12.0983 19.307 11.8799L19.0055 12.1428C19.1256 12.2805 19.1892 12.4519 19.1892 12.6705H19.5892ZM19.3086 11.8817C19.1308 11.6728 18.8778 11.5055 18.5637 11.3726L18.4079 11.741C18.6847 11.8581 18.8787 11.9938 19.0039 12.141L19.3086 11.8817ZM18.5646 11.373C18.2596 11.2423 17.8902 11.1255 17.4588 11.0215L17.3651 11.4103C17.7821 11.5109 18.1287 11.6214 18.407 11.7406L18.5646 11.373ZM17.4606 11.0219L16.1936 10.7037L16.0962 11.0917L17.3632 11.4099L17.4606 11.0219ZM16.1922 10.7034C15.233 10.4701 14.4913 10.109 13.9543 9.62926L13.6878 9.92756C14.2871 10.463 15.0946 10.8481 16.0976 11.0921L16.1922 10.7034ZM13.9543 9.62926C13.4345 9.16497 13.1709 8.53893 13.1744 7.72815L12.7744 7.72639C12.7704 8.63531 13.0711 9.3767 13.6878 9.92756L13.9543 9.62926ZM13.1744 7.7262C13.1708 7.06009 13.3473 6.48667 13.6993 5.99748L13.3746 5.76388C12.9689 6.32772 12.7704 6.98537 12.7744 7.72835L13.1744 7.7262ZM13.6987 5.99825C14.0582 5.50354 14.5534 5.11352 15.1918 4.83057L15.0298 4.46488C14.3349 4.77285 13.7808 5.2048 13.3751 5.76312L13.6987 5.99825ZM15.1918 4.83057C15.8291 4.54813 16.5584 4.40455 17.3835 4.40455V4.00455C16.5117 4.00455 15.7258 4.15641 15.0298 4.46488L15.1918 4.83057ZM17.3835 4.40455C18.2245 4.40455 18.9488 4.54839 19.5615 4.82951L19.7283 4.46595C19.0531 4.15616 18.2698 4.00455 17.3835 4.00455V4.40455ZM19.5619 4.82969C20.1804 5.11183 20.6542 5.50051 20.9911 5.99353L21.3214 5.76783C20.9386 5.20782 20.4048 4.77454 19.7279 4.46576L19.5619 4.82969ZM20.9911 5.99353C21.327 6.4849 21.5023 7.05591 21.5131 7.71351L21.913 7.70695C21.9011 6.97818 21.7052 6.32949 21.3214 5.76783L20.9911 5.99353ZM21.7131 7.51023H19.3551V7.91023H21.7131V7.51023ZM29.8395 7.71023L29.6405 7.72996L29.6583 7.91023H29.8395V7.71023ZM26.8338 6.43182L26.9077 6.6177L26.9098 6.61681L26.8338 6.43182ZM26.1974 6.89205L26.0374 6.77204L26.036 6.77404L26.1974 6.89205ZM25.9815 7.5625L26.1815 7.56977V7.5625H25.9815ZM26.1122 8.10795L25.9414 8.21209L25.9433 8.21506L26.1122 8.10795ZM26.5156 8.51136L26.4047 8.67779L26.4073 8.67948L26.5156 8.51136ZM27.1065 8.80114L27.0366 8.98855L27.0395 8.98956L27.1065 8.80114ZM27.8224 9.00568L27.869 8.81115L27.8661 8.81051L27.8224 9.00568ZM28.8679 9.25568L28.8214 9.45022L28.8242 9.45085L28.8679 9.25568ZM30.2656 9.71023L30.1841 9.89285L30.1841 9.89285L30.2656 9.71023ZM31.3679 10.4091L31.5009 10.2597L31.5009 10.2597L31.3679 10.4091ZM32.0895 11.3864L31.9074 11.4691L31.9081 11.4706L32.0895 11.3864ZM32.3565 12.6761L32.5565 12.6772L32.5565 12.6746L32.3565 12.6761ZM31.8111 14.5284L31.6463 14.415L31.6462 14.4153L31.8111 14.5284ZM30.2656 15.7386L30.3437 15.9228L30.3442 15.9226L30.2656 15.7386ZM25.3849 15.733L25.3082 15.9177L25.3086 15.9178L25.3849 15.733ZM23.7599 14.4545L23.5946 14.567L23.5954 14.5683L23.7599 14.4545ZM23.152 12.3466V12.1466H22.9474L22.952 12.3511L23.152 12.3466ZM25.5327 12.3466L25.7322 12.333L25.7195 12.1466H25.5327V12.3466ZM25.8679 13.3239L25.7082 13.4442L25.7102 13.4468L25.8679 13.3239ZM26.669 13.9091L26.5951 14.0949L26.5977 14.0959L26.669 13.9091ZM28.8963 13.9205L28.8236 13.7341L28.8228 13.7344L28.8963 13.9205ZM29.6179 13.4148L29.7749 13.5387L29.7749 13.5387L29.6179 13.4148ZM29.6406 12.0114L29.4883 12.141L29.4899 12.1428L29.6406 12.0114ZM28.9702 11.5568L28.8914 11.7406L28.8922 11.741L28.9702 11.5568ZM27.8963 11.2159L27.8476 11.4099L27.8494 11.4103L27.8963 11.2159ZM26.6293 10.8977L26.678 10.7037L26.6765 10.7034L26.6293 10.8977ZM24.3054 9.77841L24.1722 9.92756L24.1722 9.92756L24.3054 9.77841ZM23.4588 7.72727L23.6588 7.72815L23.6588 7.7262L23.4588 7.72727ZM24.0213 5.88068L23.8595 5.76312L23.859 5.76388L24.0213 5.88068ZM30.1293 4.64773L30.0459 4.82951L30.0463 4.82969L30.1293 4.64773ZM31.6406 5.88068L31.4755 5.99353L31.4755 5.99353L31.6406 5.88068ZM32.1974 7.71023V7.91023H32.4007L32.3974 7.70695L32.1974 7.71023ZM30.0385 7.69049C29.9879 7.1806 29.7669 6.77113 29.3728 6.48099L29.1357 6.8031C29.431 7.02053 29.6001 7.32319 29.6405 7.72996L30.0385 7.69049ZM29.3728 6.48099C28.9829 6.19388 28.4685 6.06136 27.8509 6.06136V6.46136C28.415 6.46136 28.8362 6.58264 29.1357 6.8031L29.3728 6.48099ZM27.8509 6.06136C27.4317 6.06136 27.0652 6.12051 26.7578 6.24683L26.9098 6.61681C27.1555 6.51585 27.467 6.46136 27.8509 6.46136V6.06136ZM26.76 6.24595C26.4564 6.36655 26.2115 6.53999 26.0374 6.77204L26.3574 7.01205C26.4789 6.85016 26.6582 6.71678 26.9076 6.61769L26.76 6.24595ZM26.036 6.77404C25.8663 7.00616 25.7815 7.2712 25.7815 7.5625H26.1815C26.1815 7.3538 26.2407 7.17187 26.3589 7.01005L26.036 6.77404ZM25.7817 7.55523C25.7729 7.79686 25.8235 8.0186 25.9415 8.21208L26.283 8.00383C26.2116 7.8867 26.175 7.74481 26.1814 7.56977L25.7817 7.55523ZM25.9433 8.21506C26.0584 8.39652 26.2136 8.55041 26.4047 8.67777L26.6266 8.34495C26.4767 8.24504 26.363 8.12999 26.2811 8.00085L25.9433 8.21506ZM26.4073 8.67948C26.5917 8.79834 26.802 8.90103 27.0367 8.98853L27.1764 8.61374C26.9641 8.53458 26.7804 8.44408 26.624 8.34325L26.4073 8.67948ZM27.0395 8.98956C27.2713 9.07207 27.5178 9.14243 27.7787 9.20085L27.8661 8.81051C27.6195 8.7553 27.3887 8.68929 27.1736 8.61272L27.0395 8.98956ZM27.7759 9.2002L28.8214 9.4502L28.9144 9.06117L27.869 8.81117L27.7759 9.2002ZM28.8242 9.45085C29.3203 9.56192 29.7734 9.70949 30.1841 9.89285L30.3472 9.5276C29.9094 9.33218 29.4306 9.17672 28.9116 9.06051L28.8242 9.45085ZM30.1841 9.89285C30.5918 10.0748 30.9413 10.2971 31.2349 10.5585L31.5009 10.2597C31.1733 9.96804 30.788 9.7244 30.3472 9.5276L30.1841 9.89285ZM31.2349 10.5585C31.5249 10.8166 31.7486 11.1198 31.9074 11.4691L32.2716 11.3036C32.0895 10.903 31.8321 10.5546 31.5009 10.2597L31.2349 10.5585ZM31.9081 11.4706C32.0684 11.8156 32.1529 12.2165 32.1565 12.6777L32.5565 12.6746C32.5526 12.166 32.4591 11.7071 32.2709 11.3021L31.9081 11.4706ZM32.1565 12.6751C32.1529 13.3521 31.9807 13.9293 31.6463 14.415L31.9758 14.6418C32.3612 14.0821 32.5526 13.4244 32.5565 12.6772L32.1565 12.6751ZM31.6462 14.4153C31.3149 14.898 30.8323 15.2792 30.1871 15.5547L30.3442 15.9226C31.0475 15.6223 31.5951 15.1967 31.976 14.6416L31.6462 14.4153ZM30.1876 15.5545C29.548 15.8255 28.7673 15.9648 27.8395 15.9648V16.3648C28.8056 16.3648 29.6423 16.22 30.3437 15.9228L30.1876 15.5545ZM27.8395 15.9648C26.9201 15.9648 26.1289 15.8239 25.4613 15.5481L25.3086 15.9178C26.0349 16.2178 26.8801 16.3648 27.8395 16.3648V15.9648ZM25.4617 15.5482C24.8005 15.2737 24.2907 14.8707 23.9245 14.3408L23.5954 14.5683C24.0095 15.1672 24.583 15.6165 25.3082 15.9177L25.4617 15.5482ZM23.9253 14.3421C23.565 13.8122 23.3702 13.1491 23.3519 12.3421L22.952 12.3511C22.9717 13.2183 23.1822 13.9606 23.5946 14.567L23.9253 14.3421ZM23.152 12.5466H25.5327V12.1466H23.152V12.5466ZM25.3331 12.3602C25.3618 12.7814 25.4836 13.1463 25.7082 13.4442L26.0276 13.2035C25.8582 12.9787 25.7566 12.6921 25.7322 12.333L25.3331 12.3602ZM25.7102 13.4468C25.9349 13.7351 26.2321 13.9505 26.5951 14.0949L26.7429 13.7233C26.4393 13.6025 26.2024 13.4277 26.0256 13.2009L25.7102 13.4468ZM26.5977 14.0959C26.9612 14.2348 27.3666 14.3023 27.8111 14.3023V13.9023C27.407 13.9023 27.0511 13.841 26.7404 13.7223L26.5977 14.0959ZM27.8111 14.3023C28.2465 14.3023 28.6343 14.239 28.9698 14.1065L28.8228 13.7344C28.5447 13.8443 28.2089 13.9023 27.8111 13.9023V14.3023ZM28.969 14.1068C29.3057 13.9754 29.5781 13.7879 29.7749 13.5387L29.4609 13.2908C29.3168 13.4735 29.1081 13.6231 28.8236 13.7341L28.969 14.1068ZM29.7749 13.5387C29.9738 13.2868 30.0736 12.9948 30.0736 12.6705H29.6736C29.6736 12.9067 29.6029 13.111 29.4609 13.2908L29.7749 13.5387ZM30.0736 12.6705C30.0736 12.3663 29.9819 12.0983 29.7913 11.8799L29.4899 12.1428C29.61 12.2805 29.6736 12.4519 29.6736 12.6705H30.0736ZM29.7929 11.8817C29.6151 11.6728 29.3621 11.5055 29.0481 11.3726L28.8922 11.741C29.1691 11.8581 29.3631 11.9938 29.4883 12.141L29.7929 11.8817ZM29.049 11.373C28.7439 11.2423 28.3746 11.1255 27.9432 11.0215L27.8494 11.4103C28.2665 11.5109 28.6131 11.6214 28.8914 11.7406L29.049 11.373ZM27.945 11.0219L26.678 10.7037L26.5805 11.0917L27.8476 11.4099L27.945 11.0219ZM26.6765 10.7034C25.7174 10.4701 24.9756 10.109 24.4386 9.62926L24.1722 9.92756C24.7715 10.463 25.579 10.8481 26.582 11.0921L26.6765 10.7034ZM24.4386 9.62926C23.9189 9.16497 23.6552 8.53893 23.6588 7.72815L23.2588 7.72639C23.2548 8.63531 23.5555 9.3767 24.1722 9.92756L24.4386 9.62926ZM23.6588 7.7262C23.6552 7.06009 23.8317 6.48667 24.1837 5.99748L23.859 5.76388C23.4533 6.32772 23.2548 6.98537 23.2588 7.72835L23.6588 7.7262ZM24.1831 5.99825C24.5426 5.50354 25.0378 5.11352 25.6762 4.83057L25.5141 4.46488C24.8192 4.77285 24.2652 5.2048 23.8595 5.76312L24.1831 5.99825ZM25.6762 4.83057C26.3135 4.54813 27.0428 4.40455 27.8679 4.40455V4.00455C26.996 4.00455 26.2102 4.15641 25.5141 4.46488L25.6762 4.83057ZM27.8679 4.40455C28.7089 4.40455 29.4332 4.54839 30.0459 4.82951L30.2127 4.46595C29.5375 4.15616 28.7541 4.00455 27.8679 4.00455V4.40455ZM30.0463 4.82969C30.6648 5.11183 31.1385 5.50051 31.4755 5.99353L31.8057 5.76783C31.423 5.20782 30.8892 4.77454 30.2123 4.46576L30.0463 4.82969ZM31.4755 5.99353C31.8113 6.4849 31.9867 7.05591 31.9975 7.71351L32.3974 7.70695C32.3855 6.97818 32.1896 6.32949 31.8057 5.76783L31.4755 5.99353ZM32.1974 7.51023H29.8395V7.91023H32.1974V7.51023Z" fill="#3B82F6"/>
</svg>
